<svg width="66" height="58" viewBox="0 0 66 58" fill="none" xmlns="http://www.w3.org/2000/svg">
<path d="M36.8 50.12C33.12 55.3467 27.92 57.96 21.2 57.96C14.48 57.96 9.25333 55.3467 5.52 50.12C1.84 44.84 5.96046e-08 37.8 5.96046e-08 29C5.96046e-08 20.2 1.84 13.1867 5.52 7.96C9.25333 2.68 14.48 0.039999 21.2 0.039999C27.92 0.039999 33.12 2.68 36.8 7.96C40.5333 13.1867 42.4 20.2 42.4 29C42.4 37.8 40.5333 44.84 36.8 50.12ZM9.68 46.36C12.4533 50.4667 16.2933 52.52 21.2 52.52C26.1067 52.52 29.92 50.4667 32.64 46.36C35.4133 42.2533 36.8 36.4667 36.8 29C36.8 21.5333 35.4133 15.7467 32.64 11.64C29.92 7.53333 26.1067 5.48 21.2 5.48C16.2933 5.48 12.4533 7.53333 9.68 11.64C6.96 15.7467 5.6 21.5333 5.6 29C5.6 36.4667 6.96 42.2533 9.68 46.36ZM60.8281 0.999996H65.6281V57H60.0281V7.16L47.4681 10.92L46.0281 6.12L60.8281 0.999996Z" fill="#01CD7D"/>
</svg>
