<svg width="85" height="58" viewBox="0 0 85 58" fill="none" xmlns="http://www.w3.org/2000/svg">
<path d="M36.8 50.12C33.12 55.3467 27.92 57.96 21.2 57.96C14.48 57.96 9.25333 55.3467 5.52 50.12C1.84 44.84 5.96046e-08 37.8 5.96046e-08 29C5.96046e-08 20.2 1.84 13.1867 5.52 7.96C9.25333 2.68 14.48 0.039999 21.2 0.039999C27.92 0.039999 33.12 2.68 36.8 7.96C40.5333 13.1867 42.4 20.2 42.4 29C42.4 37.8 40.5333 44.84 36.8 50.12ZM9.68 46.36C12.4533 50.4667 16.2933 52.52 21.2 52.52C26.1067 52.52 29.92 50.4667 32.64 46.36C35.4133 42.2533 36.8 36.4667 36.8 29C36.8 21.5333 35.4133 15.7467 32.64 11.64C29.92 7.53333 26.1067 5.48 21.2 5.48C16.2933 5.48 12.4533 7.53333 9.68 11.64C6.96 15.7467 5.6 21.5333 5.6 29C5.6 36.4667 6.96 42.2533 9.68 46.36ZM48.8094 57V51.96L68.9694 31.64C74.7294 25.88 77.6094 20.9467 77.6094 16.84C77.6094 13.2667 76.4894 10.4933 74.2494 8.52C72.0627 6.49333 69.4227 5.48 66.3294 5.48C60.5694 5.48 56.3827 8.12 53.7694 13.4L49.0494 10.6C50.8094 7.13333 53.2094 4.52 56.2494 2.76C59.2894 0.946665 62.6494 0.039999 66.3294 0.039999C70.8094 0.039999 74.7294 1.56 78.0894 4.6C81.5027 7.58666 83.2094 11.6667 83.2094 16.84C83.2094 20.0933 82.3027 23.2133 80.4894 26.2C78.676 29.1867 76.116 32.3333 72.8094 35.64L56.8094 51.56H84.4094V57H48.8094Z" fill="#01CD7D"/>
</svg>
