<svg width="85" height="58" viewBox="0 0 85 58" fill="none" xmlns="http://www.w3.org/2000/svg">
<path d="M36.8 50.12C33.12 55.3467 27.92 57.96 21.2 57.96C14.48 57.96 9.25333 55.3467 5.52 50.12C1.84 44.84 5.96046e-08 37.8 5.96046e-08 29C5.96046e-08 20.2 1.84 13.1867 5.52 7.96C9.25333 2.68 14.48 0.039999 21.2 0.039999C27.92 0.039999 33.12 2.68 36.8 7.96C40.5333 13.1867 42.4 20.2 42.4 29C42.4 37.8 40.5333 44.84 36.8 50.12ZM9.68 46.36C12.4533 50.4667 16.2933 52.52 21.2 52.52C26.1067 52.52 29.92 50.4667 32.64 46.36C35.4133 42.2533 36.8 36.4667 36.8 29C36.8 21.5333 35.4133 15.7467 32.64 11.64C29.92 7.53333 26.1067 5.48 21.2 5.48C16.2933 5.48 12.4533 7.53333 9.68 11.64C6.96 15.7467 5.6 21.5333 5.6 29C5.6 36.4667 6.96 42.2533 9.68 46.36ZM68.5881 24.28C73.0681 24.8667 76.7481 26.6 79.6281 29.48C82.5615 32.3067 84.0281 36.0667 84.0281 40.76C84.0281 46.0933 82.1881 50.3067 78.5081 53.4C74.8815 56.44 70.4548 57.96 65.2281 57.96C61.0681 57.96 57.3615 57 54.1081 55.08C50.8548 53.16 48.5615 50.4133 47.2281 46.84L51.8681 44.12C52.7748 46.8933 54.4015 49 56.7481 50.44C59.0948 51.8267 61.9215 52.52 65.2281 52.52C69.0681 52.52 72.2148 51.5067 74.6681 49.48C77.1748 47.4 78.4281 44.4933 78.4281 40.76C78.4281 37.0267 77.1748 34.1467 74.6681 32.12C72.2148 30.04 69.0681 29 65.2281 29V28.92L65.1481 29H63.6281L61.2281 25.32L75.1481 6.28H48.8281V0.999996H81.6281V6.28L68.5881 24.28Z" fill="#01CD7D"/>
</svg>
