<svg width="87" height="58" viewBox="0 0 87 58" fill="none" xmlns="http://www.w3.org/2000/svg">
<path d="M36.8 50.12C33.12 55.3467 27.92 57.96 21.2 57.96C14.48 57.96 9.25333 55.3467 5.52 50.12C1.84 44.84 5.96046e-08 37.8 5.96046e-08 29C5.96046e-08 20.2 1.84 13.1867 5.52 7.96C9.25333 2.68 14.48 0.039999 21.2 0.039999C27.92 0.039999 33.12 2.68 36.8 7.96C40.5333 13.1867 42.4 20.2 42.4 29C42.4 37.8 40.5333 44.84 36.8 50.12ZM9.68 46.36C12.4533 50.4667 16.2933 52.52 21.2 52.52C26.1067 52.52 29.92 50.4667 32.64 46.36C35.4133 42.2533 36.8 36.4667 36.8 29C36.8 21.5333 35.4133 15.7467 32.64 11.64C29.92 7.53333 26.1067 5.48 21.2 5.48C16.2933 5.48 12.4533 7.53333 9.68 11.64C6.96 15.7467 5.6 21.5333 5.6 29C5.6 36.4667 6.96 42.2533 9.68 46.36ZM67.5906 23.56C72.8173 23.56 77.244 25.1067 80.8706 28.2C84.5506 31.24 86.3906 35.4267 86.3906 40.76C86.3906 46.0933 84.5506 50.3067 80.8706 53.4C77.244 56.44 72.8173 57.96 67.5906 57.96C63.3773 57.96 59.6173 56.9467 56.3106 54.92C53.004 52.84 50.764 49.88 49.5906 46.04L54.3106 43.32C55.1106 46.3067 56.684 48.6 59.0306 50.2C61.4306 51.7467 64.284 52.52 67.5906 52.52C71.4306 52.52 74.5773 51.5067 77.0306 49.48C79.5373 47.4 80.7906 44.4933 80.7906 40.76C80.7906 37.0267 79.5373 34.1467 77.0306 32.12C74.5773 30.04 71.4306 29 67.5906 29H52.3906L54.3906 0.999996H84.3906V6.28H59.3506L58.1506 23.56H67.5906Z" fill="#01CD7D"/>
</svg>
