<svg width="31" height="31" viewBox="0 0 31 31" fill="none" xmlns="http://www.w3.org/2000/svg">
<path d="M26.4313 4.6147C23.6399 1.76452 19.7812 0.217285 15.8405 0.217285C7.46634 0.217285 0.734199 6.97627 0.816298 15.2011C0.816298 17.8069 1.55519 20.3314 2.78668 22.6115L0.6521 30.3477L8.61573 28.3119C10.8324 29.5334 13.2954 30.1034 15.7584 30.1034C24.0504 30.1034 30.7825 23.3444 30.7825 15.1196C30.7825 11.1294 29.2226 7.38344 26.4313 4.6147ZM15.8405 27.579C13.6238 27.579 11.4071 27.0089 9.51882 25.8689L9.02623 25.6246L4.26447 26.8461L5.49596 22.2044L5.16756 21.7158C1.55519 15.934 3.27928 8.27921 9.19042 4.69613C15.1016 1.11305 22.7368 2.82316 26.3492 8.68638C29.9615 14.5496 28.2375 22.1229 22.3263 25.706C20.438 26.9275 18.1392 27.579 15.8405 27.579ZM23.0652 18.5398L22.1621 18.1327C22.1621 18.1327 20.8485 17.5626 20.0275 17.1555C19.9454 17.1555 19.8633 17.074 19.7812 17.074C19.5349 17.074 19.3707 17.1555 19.2065 17.2369C19.2065 17.2369 19.1244 17.3183 17.975 18.6213C17.8929 18.7841 17.7287 18.8656 17.5645 18.8656H17.4825C17.4004 18.8656 17.2362 18.7841 17.1541 18.7027L16.7436 18.5398C15.8405 18.1327 15.0195 17.6441 14.3627 16.9926C14.1985 16.8297 13.9522 16.6669 13.788 16.504C13.2133 15.934 12.6386 15.2825 12.2281 14.5496L12.146 14.3867C12.0639 14.3053 12.0639 14.2239 11.9818 14.061C11.9818 13.8981 11.9818 13.7353 12.0639 13.6538C12.0639 13.6538 12.3923 13.2467 12.6386 13.0024C12.8028 12.8395 12.8849 12.5952 13.0491 12.4323C13.2133 12.188 13.2954 11.8623 13.2133 11.618C13.1312 11.2108 12.146 9.01211 11.8997 8.52351C11.7355 8.27921 11.5713 8.19778 11.325 8.11634H11.0787C10.9145 8.11634 10.6682 8.11634 10.4219 8.11634C10.2577 8.11634 10.0935 8.19778 9.92932 8.19778L9.84722 8.27921C9.68302 8.36065 9.51882 8.52351 9.35462 8.60495C9.19042 8.76781 9.10832 8.93068 8.94413 9.09355C8.36943 9.82645 8.04103 10.7222 8.04103 11.618C8.04103 12.2695 8.20523 12.9209 8.45153 13.491L8.53363 13.7353C9.27252 15.2825 10.2577 16.6669 11.5713 17.8884L11.8997 18.2141C12.146 18.4584 12.3923 18.6213 12.5565 18.8656C14.2806 20.3314 16.251 21.39 18.4676 21.9601C18.7139 22.0415 19.0423 22.0415 19.2886 22.1229C19.5349 22.1229 19.8633 22.1229 20.1096 22.1229C20.5201 22.1229 21.0127 21.9601 21.3411 21.7972C21.5874 21.6343 21.7516 21.6343 21.9158 21.4715L22.08 21.3086C22.2442 21.1457 22.4084 21.0643 22.5726 20.9014C22.7368 20.7386 22.901 20.5757 22.9831 20.4128C23.1473 20.0871 23.2294 19.6799 23.3115 19.2727C23.3115 19.1099 23.3115 18.8656 23.3115 18.7027C23.3115 18.7027 23.2294 18.6213 23.0652 18.5398Z" fill="white"/>
</svg>
